<svg width="26" height="26" viewBox="0 0 26 26" fill="none" xmlns="http://www.w3.org/2000/svg">
<path opacity="0.16" d="M1 22.0001C1 20.4088 1.63214 18.8826 2.75736 17.7574C3.88258 16.6322 5.4087 16.0001 7 16.0001H19C20.5913 16.0001 22.1174 16.6322 23.2426 17.7574C24.3679 18.8826 25 20.4088 25 22.0001C25 22.7957 24.6839 23.5588 24.1213 24.1214C23.5587 24.684 22.7956 25.0001 22 25.0001H4C3.20435 25.0001 2.44129 24.684 1.87868 24.1214C1.31607 23.5588 1 22.7957 1 22.0001Z" fill="#53AC5F"/>
<path d="M1 22.0001C1 20.4088 1.63214 18.8826 2.75736 17.7574C3.88258 16.6322 5.4087 16.0001 7 16.0001H19C20.5913 16.0001 22.1174 16.6322 23.2426 17.7574C24.3679 18.8826 25 20.4088 25 22.0001C25 22.7957 24.6839 23.5588 24.1213 24.1214C23.5587 24.684 22.7956 25.0001 22 25.0001H4C3.20435 25.0001 2.44129 24.684 1.87868 24.1214C1.31607 23.5588 1 22.7957 1 22.0001Z" fill="#53AC5F" fill-opacity="0.46" stroke="#53AC5F" stroke-width="1.8" stroke-linejoin="round"/>
<path d="M12.9994 10C15.4847 10 17.4994 7.98528 17.4994 5.5C17.4994 3.01472 15.4847 1 12.9994 1C10.5141 1 8.49939 3.01472 8.49939 5.5C8.49939 7.98528 10.5141 10 12.9994 10Z" fill="#53AC5F" stroke="#53AC5F" stroke-width="1.8"/>
</svg>
