<svg width="24" height="25" viewBox="0 0 24 25" fill="none" xmlns="http://www.w3.org/2000/svg">
<path fill-rule="evenodd" clip-rule="evenodd" d="M0.0486302 1.1279C0.128299 0.888463 0.299789 0.690456 0.5254 0.577412C0.751012 0.464368 1.01228 0.44554 1.25177 0.525066L1.58809 0.638019L1.63885 0.654518C2.43333 0.919767 3.1047 1.14313 3.63393 1.38935C4.19489 1.65079 4.68224 1.97315 5.05155 2.48715C5.42087 2.99861 5.57444 3.56337 5.64424 4.1789C5.71023 4.75763 5.71023 5.4658 5.71023 6.30343V9.67806C5.71023 11.4993 5.71277 12.7709 5.84095 13.7291C5.9666 14.6607 6.19631 15.1531 6.54659 15.5046C6.89814 15.8562 7.39184 16.0846 8.32338 16.2103C9.28158 16.3385 10.552 16.341 12.3732 16.341H21.2571C21.3821 16.341 21.5059 16.3656 21.6214 16.4135C21.7369 16.4613 21.8418 16.5314 21.9302 16.6198C22.0186 16.7082 22.0887 16.8131 22.1365 16.9286C22.1843 17.0441 22.209 17.1679 22.209 17.2929C22.209 17.4179 22.1843 17.5416 22.1365 17.6571C22.0887 17.7726 22.0186 17.8775 21.9302 17.9659C21.8418 18.0543 21.7369 18.1244 21.6214 18.1722C21.5059 18.2201 21.3821 18.2447 21.2571 18.2447H12.3034C10.5685 18.2447 9.16862 18.2447 8.06828 18.0962C6.92606 17.9439 5.96406 17.6139 5.20004 16.8512C4.43729 16.0872 4.10859 15.1252 3.95502 13.983C3.80653 12.8826 3.80653 11.4828 3.80653 9.74786V6.35673C3.80653 5.45184 3.80653 4.85281 3.75323 4.39465C3.70247 3.96061 3.61743 3.7512 3.50702 3.60018C3.39787 3.44788 3.22654 3.29939 2.83057 3.11537C2.41176 2.92119 1.84445 2.72955 0.98652 2.44273L0.650199 2.33104C0.410991 2.25111 0.213282 2.07952 0.10049 1.85394C-0.0123009 1.62835 -0.030953 1.36723 0.0486302 1.1279Z" fill="#53AC5F"/>
<path opacity="0.5" d="M5.70386 5.23608C5.7102 5.56606 5.7102 5.92142 5.7102 6.30343V9.67805C5.7102 11.4993 5.71274 12.7709 5.84092 13.7291C5.85996 13.8687 5.88154 13.9995 5.90438 14.12H18.748C19.9651 14.12 20.573 14.12 21.0502 13.8053C21.5274 13.4905 21.7673 12.9321 22.2457 11.8127L22.7915 10.5436C23.8182 8.14494 24.3309 6.94814 23.7674 6.09148C23.2027 5.23608 21.8993 5.23608 19.2899 5.23608H5.70386Z" fill="#53AC5F"/>
<path d="M7.93104 20.4657C8.43594 20.4657 8.92015 20.6663 9.27716 21.0233C9.63418 21.3803 9.83474 21.8645 9.83474 22.3694C9.83474 22.8743 9.63418 23.3585 9.27716 23.7155C8.92015 24.0725 8.43594 24.2731 7.93104 24.2731C7.42615 24.2731 6.94194 24.0725 6.58492 23.7155C6.22791 23.3585 6.02734 22.8743 6.02734 22.3694C6.02734 21.8645 6.22791 21.3803 6.58492 21.0233C6.94194 20.6663 7.42615 20.4657 7.93104 20.4657ZM21.2569 22.3694C21.2569 21.8645 21.0564 21.3803 20.6994 21.0233C20.3423 20.6663 19.8581 20.4657 19.3532 20.4657C18.8484 20.4657 18.3641 20.6663 18.0071 21.0233C17.6501 21.3803 17.4495 21.8645 17.4495 22.3694C17.4495 22.8743 17.6501 23.3585 18.0071 23.7155C18.3641 24.0725 18.8484 24.2731 19.3532 24.2731C19.8581 24.2731 20.3423 24.0725 20.6994 23.7155C21.0564 23.3585 21.2569 22.8743 21.2569 22.3694Z" fill="#53AC5F"/>
</svg>
