<svg width="24" height="24" viewBox="0 0 24 24" fill="none" xmlns="http://www.w3.org/2000/svg">
<path fill-rule="evenodd" clip-rule="evenodd" d="M9.70493 0H9.76744C9.98948 0 10.2024 0.0882058 10.3594 0.245213C10.5164 0.40222 10.6047 0.615168 10.6047 0.837209C10.6047 1.05925 10.5164 1.2722 10.3594 1.42921C10.2024 1.58621 9.98948 1.67442 9.76744 1.67442C7.6387 1.67442 6.12726 1.67665 4.9786 1.8307C3.85674 1.9814 3.2093 2.26493 2.73712 2.73712C2.26493 3.2093 1.9814 3.85674 1.8307 4.97972C1.67665 6.12726 1.67442 7.6387 1.67442 9.76744C1.67442 9.98948 1.58621 10.2024 1.42921 10.3594C1.2722 10.5164 1.05925 10.6047 0.837209 10.6047C0.615168 10.6047 0.40222 10.5164 0.245213 10.3594C0.0882058 10.2024 0 9.98948 0 9.76744V9.70493C0 7.65321 0 6.02791 0.170791 4.75647C0.347163 3.44819 0.717767 2.38884 1.55274 1.55274C2.38884 0.717767 3.44819 0.347163 4.75647 0.170791C6.02902 0 7.65321 0 9.70493 0ZM19.0203 1.8307C17.8739 1.67665 16.3613 1.67442 14.2326 1.67442C14.0105 1.67442 13.7976 1.58621 13.6406 1.42921C13.4836 1.2722 13.3953 1.05925 13.3953 0.837209C13.3953 0.615168 13.4836 0.40222 13.6406 0.245213C13.7976 0.0882058 14.0105 3.30868e-09 14.2326 0H14.2951C16.3468 0 17.9721 0 19.2435 0.170791C20.5518 0.347163 21.6112 0.717767 22.4473 1.55274C23.2822 2.38884 23.6528 3.44819 23.8292 4.75647C24 6.02902 24 7.65321 24 9.70493V9.76744C24 9.98948 23.9118 10.2024 23.7548 10.3594C23.5978 10.5164 23.3848 10.6047 23.1628 10.6047C22.9408 10.6047 22.7278 10.5164 22.5708 10.3594C22.4138 10.2024 22.3256 9.98948 22.3256 9.76744C22.3256 7.6387 22.3234 6.12726 22.1693 4.9786C22.0186 3.85674 21.7351 3.2093 21.2629 2.73712C20.7907 2.26493 20.1433 1.9814 19.0203 1.8307ZM0.837209 13.3953C1.05925 13.3953 1.2722 13.4836 1.42921 13.6406C1.58621 13.7976 1.67442 14.0105 1.67442 14.2326C1.67442 16.3613 1.67665 17.8739 1.8307 19.0214C1.9814 20.1433 2.26493 20.7907 2.73712 21.2629C3.2093 21.7351 3.85674 22.0186 4.97972 22.1693C6.12726 22.3234 7.6387 22.3256 9.76744 22.3256C9.98948 22.3256 10.2024 22.4138 10.3594 22.5708C10.5164 22.7278 10.6047 22.9408 10.6047 23.1628C10.6047 23.3848 10.5164 23.5978 10.3594 23.7548C10.2024 23.9118 9.98948 24 9.76744 24H9.70493C7.65321 24 6.02791 24 4.75647 23.8292C3.44819 23.6528 2.38884 23.2822 1.55274 22.4473C0.717767 21.6112 0.347163 20.5518 0.170791 19.2435C0 17.971 0 16.3468 0 14.2951V14.2326C0 14.0105 0.0882058 13.7976 0.245213 13.6406C0.40222 13.4836 0.615168 13.3953 0.837209 13.3953ZM23.1628 13.3953C23.3848 13.3953 23.5978 13.4836 23.7548 13.6406C23.9118 13.7976 24 14.0105 24 14.2326V14.2951C24 16.3468 24 17.9721 23.8292 19.2435C23.6528 20.5518 23.2822 21.6112 22.4473 22.4473C21.6112 23.2822 20.5518 23.6528 19.2435 23.8292C17.971 24 16.3468 24 14.2951 24H14.2326C14.0105 24 13.7976 23.9118 13.6406 23.7548C13.4836 23.5978 13.3953 23.3848 13.3953 23.1628C13.3953 22.9408 13.4836 22.7278 13.6406 22.5708C13.7976 22.4138 14.0105 22.3256 14.2326 22.3256C16.3613 22.3256 17.8739 22.3234 19.0214 22.1693C20.1433 22.0186 20.7907 21.7351 21.2629 21.2629C21.7351 20.7907 22.0186 20.1433 22.1693 19.0203C22.3234 17.8739 22.3256 16.3613 22.3256 14.2326C22.3256 14.0105 22.4138 13.7976 22.5708 13.6406C22.7278 13.4836 22.9408 13.3953 23.1628 13.3953Z" fill="#53AC5F"/>
<path opacity="0.5" d="M9.76761 4.74414H14.2327C16.338 4.74414 17.3896 4.74414 18.0437 5.39828C18.6577 6.01223 18.6956 6.9767 18.6978 8.83419V14.7907C18.6978 16.896 18.6978 17.9475 18.0437 18.6016C17.3896 19.2558 16.338 19.2558 14.2327 19.2558H9.76761C7.6623 19.2558 6.61077 19.2558 5.95663 18.6016C5.30249 17.9475 5.30249 16.896 5.30249 14.7907V8.83419C5.30472 6.9767 5.34268 6.01223 5.95663 5.39828C6.61077 4.74414 7.6623 4.74414 9.76761 4.74414Z" fill="#53AC5F" fill-opacity="0.46"/>
<path d="M19.1106 8.98604C18.9777 8.93581 18.8404 8.88557 18.6975 8.83423C16.6514 7.96576 11.1068 6.74902 5.3022 8.83423C5.15931 8.88446 5.02201 8.93469 4.88917 8.98604C4.28855 9.21262 3.70855 9.49048 3.15559 9.81655C2.94745 9.94138 2.74623 10.0774 2.5528 10.224L2.54164 10.234L2.53717 10.2374L2.53494 10.2396C2.36382 10.3813 2.25487 10.5851 2.23404 10.8063C2.21321 11.0275 2.28109 11.2478 2.42276 11.419C2.56442 11.5901 2.76826 11.6979 2.98943 11.7188C3.2106 11.7396 3.43098 11.6717 3.6021 11.53L3.61327 11.5211L3.68359 11.4686C3.79166 11.3926 3.90263 11.3207 4.01624 11.2532C4.48701 10.9765 4.98074 10.7408 5.49197 10.5488C6.84713 10.0275 8.97811 9.48837 12.001 9.48837C15.025 9.48837 17.1548 10.0275 18.5089 10.5488C19.0201 10.7404 19.5138 10.9757 19.9846 11.2521C20.1228 11.3348 20.2569 11.4242 20.3865 11.52L20.3988 11.53C20.5699 11.6697 20.7894 11.7361 21.0093 11.7146C21.2292 11.6932 21.4318 11.5857 21.5727 11.4155C21.7137 11.2454 21.7817 11.0264 21.7619 10.8064C21.7421 10.5863 21.6361 10.383 21.467 10.2407L20.9301 10.8837C21.4659 10.2407 21.4648 10.2396 21.4648 10.2396L21.4626 10.2374L21.4581 10.234L21.4469 10.224C21.3958 10.1832 21.3433 10.1441 21.2895 10.1068C21.145 10.0042 20.9964 9.90739 20.8442 9.81655C20.2912 9.49048 19.7112 9.21262 19.1106 8.98604Z" fill="#53AC5F"/>
</svg>
