<svg width="24" height="28" viewBox="0 0 24 28" fill="none" xmlns="http://www.w3.org/2000/svg">
<path d="M4.7494 2.32532C4.91349 2.12948 4.99425 1.87711 4.97435 1.62239C4.95445 1.36767 4.83547 1.1309 4.64295 0.962922C4.45044 0.794942 4.19974 0.709137 3.94467 0.723929C3.68961 0.73872 3.4505 0.852928 3.2787 1.04204L1.59715 2.96826C0.643649 4.06096 0.104638 5.4541 0.0743943 6.90401L0.000208693 10.4428C-0.0051416 10.7017 0.092569 10.9521 0.271845 11.1389C0.451122 11.3258 0.697278 11.4338 0.956164 11.4391C1.21505 11.4445 1.46546 11.3467 1.6523 11.1675C1.83914 10.9882 1.94712 10.742 1.95247 10.4831L2.02535 6.94566C2.04623 5.95356 2.41525 5.00038 3.06785 4.25285L4.7494 2.32532Z" fill="#53AC5F" fill-opacity="0.46"/>
<path fill-rule="evenodd" clip-rule="evenodd" d="M4.49993 9.20642C4.58733 7.81398 5.20212 6.5072 6.21912 5.5521C7.23612 4.597 8.57888 4.06538 9.97406 4.06547H10.699V3.08935C10.699 2.74417 10.8361 2.41312 11.0802 2.16904C11.3243 1.92496 11.6553 1.78784 12.0005 1.78784C12.3457 1.78784 12.6767 1.92496 12.9208 2.16904C13.1649 2.41312 13.302 2.74417 13.302 3.08935V4.06547H14.0269C15.4221 4.06538 16.7649 4.597 17.7819 5.5521C18.7989 6.5072 19.4137 7.81398 19.5011 9.20642L19.7887 13.8059C19.8983 15.5597 20.4872 17.2497 21.4911 18.6918C21.6985 18.9899 21.8252 19.3366 21.8589 19.6983C21.8927 20.0599 21.8323 20.4241 21.6835 20.7554C21.5348 21.0867 21.3029 21.374 21.0103 21.5891C20.7178 21.8043 20.3745 21.9401 20.0139 21.9833L15.5796 22.5143V23.9134C15.5796 24.8627 15.2025 25.773 14.5313 26.4442C13.8601 27.1155 12.9497 27.4926 12.0005 27.4926C11.0513 27.4926 10.1409 27.1155 9.46967 26.4442C8.79845 25.773 8.42136 24.8627 8.42136 23.9134V22.5143L3.98714 21.982C3.62674 21.9387 3.28368 21.8029 2.99129 21.5878C2.69889 21.3727 2.46709 21.0856 2.31842 20.7545C2.16974 20.4233 2.10924 20.0594 2.1428 19.6979C2.17636 19.3365 2.30283 18.9899 2.50993 18.6918C3.51378 17.2496 4.10262 15.5596 4.2123 13.8059L4.49993 9.20642ZM10.3736 23.9134C10.3736 24.3449 10.545 24.7587 10.8501 25.0638C11.1552 25.3689 11.569 25.5403 12.0005 25.5403C12.432 25.5403 12.8458 25.3689 13.1509 25.0638C13.456 24.7587 13.6274 24.3449 13.6274 23.9134V22.9373H10.3736V23.9134Z" fill="#53AC5F"/>
<path d="M19.344 0.948267C19.149 1.11847 19.0296 1.35914 19.012 1.61736C18.9944 1.87558 19.0801 2.13021 19.2503 2.32526L20.9318 4.25148C21.5842 4.99954 21.9528 5.95321 21.973 6.9456L22.0472 10.4818C22.0498 10.61 22.0777 10.7364 22.1292 10.8538C22.1807 10.9712 22.2549 11.0773 22.3474 11.1661C22.4399 11.2549 22.549 11.3246 22.6684 11.3712C22.7879 11.4178 22.9153 11.4404 23.0435 11.4377C23.1717 11.4351 23.2981 11.4072 23.4155 11.3557C23.5329 11.3042 23.6391 11.2301 23.7278 11.1376C23.8166 11.0451 23.8863 10.936 23.9329 10.8165C23.9795 10.6971 24.0021 10.5696 23.9995 10.4414L23.9253 6.90395C23.895 5.45404 23.356 4.0609 22.4025 2.9682L20.721 1.04198C20.5508 0.846995 20.3101 0.727591 20.0519 0.710018C19.7937 0.692445 19.539 0.778143 19.344 0.948267Z" fill="#53AC5F" fill-opacity="0.46"/>
</svg>
