<svg width="24" height="24" viewBox="0 0 24 24" fill="none" xmlns="http://www.w3.org/2000/svg">
<path d="M12.2765 4.39733C12.2021 4.32612 12.103 4.28638 12 4.28638C11.897 4.28638 11.798 4.32612 11.7235 4.39733L2.51855 13.1908C2.47946 13.2282 2.44836 13.2731 2.42713 13.3229C2.40591 13.3727 2.39499 13.4262 2.39505 13.4803L2.39355 21.7333C2.39355 22.1576 2.56213 22.5646 2.86218 22.8647C3.16224 23.1647 3.56921 23.3333 3.99355 23.3333H8.79854C9.01071 23.3333 9.21419 23.249 9.36422 23.099C9.51425 22.9489 9.59854 22.7455 9.59854 22.5333V15.7333C9.59854 15.6272 9.64068 15.5255 9.71569 15.4505C9.79071 15.3754 9.89245 15.3333 9.99854 15.3333H13.9985C14.1046 15.3333 14.2064 15.3754 14.2814 15.4505C14.3564 15.5255 14.3985 15.6272 14.3985 15.7333V22.5333C14.3985 22.7455 14.4828 22.9489 14.6328 23.099C14.7829 23.249 14.9864 23.3333 15.1985 23.3333H20.0015C20.4259 23.3333 20.8328 23.1647 21.1329 22.8647C21.4329 22.5646 21.6015 22.1576 21.6015 21.7333V13.4803C21.6016 13.4262 21.5907 13.3727 21.5694 13.3229C21.5482 13.2731 21.5171 13.2282 21.478 13.1908L12.2765 4.39733Z" fill="#53AC5F" fill-opacity="0.46"/>
<path d="M23.7455 11.5408L20.0055 7.96283V2.53335C20.0055 2.32117 19.9212 2.11769 19.7712 1.96766C19.6211 1.81763 19.4176 1.73335 19.2055 1.73335H16.8055C16.5933 1.73335 16.3898 1.81763 16.2398 1.96766C16.0898 2.11769 16.0055 2.32117 16.0055 2.53335V4.13334L13.1095 1.36435C12.8385 1.09035 12.4355 0.93335 12 0.93335C11.566 0.93335 11.164 1.09035 10.893 1.36485L0.258018 11.5398C-0.0529809 11.8398 -0.0919808 12.3333 0.191018 12.6583C0.262084 12.7404 0.349099 12.8071 0.446767 12.8544C0.544436 12.9017 0.650715 12.9287 0.759137 12.9337C0.867559 12.9386 0.975857 12.9215 1.07744 12.8832C1.17902 12.845 1.27176 12.7865 1.35002 12.7113L11.725 2.79735C11.7994 2.72614 11.8985 2.68639 12.0015 2.68639C12.1045 2.68639 12.2035 2.72614 12.278 2.79735L22.654 12.7113C22.8068 12.8579 23.0115 12.9379 23.2233 12.9338C23.435 12.9296 23.6364 12.8417 23.7835 12.6893C24.0905 12.3713 24.065 11.8463 23.7455 11.5408Z" fill="#53AC5F"/>
</svg>
