<svg width="24" height="18" viewBox="0 0 24 18" fill="none" xmlns="http://www.w3.org/2000/svg">
<path fill-rule="evenodd" clip-rule="evenodd" d="M17.095 10.2327C18.5895 11.2472 19.6367 12.6217 19.6367 14.4544V17.7271H24.0003V14.4544C24.0003 12.0763 20.1058 10.669 17.095 10.2327Z" fill="#4ECB71"/>
<path d="M8.7266 9.00008C11.1365 9.00008 13.0902 7.04645 13.0902 4.63652C13.0902 2.22658 11.1365 0.272949 8.7266 0.272949C6.31667 0.272949 4.36304 2.22658 4.36304 4.63652C4.36304 7.04645 6.31667 9.00008 8.7266 9.00008Z" fill="#53AC5F"/>
<path fill-rule="evenodd" clip-rule="evenodd" d="M15.2725 9.00008C17.6834 9.00008 19.6361 7.04739 19.6361 4.63652C19.6361 2.22565 17.6834 0.272949 15.2725 0.272949C14.7598 0.272949 14.2798 0.382038 13.8216 0.534763C14.7603 1.69571 15.2725 3.14353 15.2725 4.63652C15.2725 6.12951 14.7603 7.57732 13.8216 8.73827C14.2798 8.89099 14.7598 9.00008 15.2725 9.00008ZM8.72713 10.091C5.81445 10.091 0 11.5528 0 14.4545V17.7272H17.4543V14.4545C17.4543 11.5528 11.6398 10.091 8.72713 10.091Z" fill="#53AC5F" fill-opacity="0.46"/>
</svg>
