<svg width="24" height="18" viewBox="0 0 24 18" fill="none" xmlns="http://www.w3.org/2000/svg">
<path opacity="0.2" d="M23.1111 6.33331V17H6.22217V13.4444H11.5555V6.33331H23.1111Z" fill="#53AC5F"/>
<path d="M11.5556 5.44436H23.1111C23.3469 5.44436 23.573 5.53801 23.7397 5.70471C23.9064 5.87141 24 6.0975 24 6.33325C24 6.56899 23.9064 6.79509 23.7397 6.96178C23.573 7.12848 23.3469 7.22213 23.1111 7.22213H11.5556C11.3198 7.22213 11.0937 7.12848 10.927 6.96178C10.7603 6.79509 10.6667 6.56899 10.6667 6.33325C10.6667 6.0975 10.7603 5.87141 10.927 5.70471C11.0937 5.53801 11.3198 5.44436 11.5556 5.44436ZM23.1111 8.99991H11.5556C11.3198 8.99991 11.0937 9.09356 10.927 9.26026C10.7603 9.42696 10.6667 9.65305 10.6667 9.8888C10.6667 10.1245 10.7603 10.3506 10.927 10.5173C11.0937 10.684 11.3198 10.7777 11.5556 10.7777H23.1111C23.3469 10.7777 23.573 10.684 23.7397 10.5173C23.9064 10.3506 24 10.1245 24 9.8888C24 9.65305 23.9064 9.42696 23.7397 9.26026C23.573 9.09356 23.3469 8.99991 23.1111 8.99991ZM23.1111 12.5555H6.22222C5.98647 12.5555 5.76038 12.6491 5.59368 12.8158C5.42698 12.9825 5.33333 13.2086 5.33333 13.4444C5.33333 13.6801 5.42698 13.9062 5.59368 14.0729C5.76038 14.2396 5.98647 14.3332 6.22222 14.3332H23.1111C23.3469 14.3332 23.573 14.2396 23.7397 14.0729C23.9064 13.9062 24 13.6801 24 13.4444C24 13.2086 23.9064 12.9825 23.7397 12.8158C23.573 12.6491 23.3469 12.5555 23.1111 12.5555ZM23.1111 16.111H6.22222C5.98647 16.111 5.76038 16.2047 5.59368 16.3714C5.42698 16.5381 5.33333 16.7642 5.33333 16.9999C5.33333 17.2357 5.42698 17.4618 5.59368 17.6285C5.76038 17.7952 5.98647 17.8888 6.22222 17.8888H23.1111C23.3469 17.8888 23.573 17.7952 23.7397 17.6285C23.9064 17.4618 24 17.2357 24 16.9999C24 16.7642 23.9064 16.5381 23.7397 16.3714C23.573 16.2047 23.3469 16.111 23.1111 16.111ZM8 10.7777C8.23575 10.7777 8.46184 10.684 8.62854 10.5173C8.79524 10.3506 8.88889 10.1245 8.88889 9.8888C8.88889 9.65305 8.79524 9.42696 8.62854 9.26026C8.46184 9.09356 8.23575 8.99991 8 8.99991H7.11111V1.8888H10.6667V2.77769C10.6667 3.01344 10.7603 3.23953 10.927 3.40623C11.0937 3.57293 11.3198 3.66658 11.5556 3.66658C11.7913 3.66658 12.0174 3.57293 12.1841 3.40623C12.3508 3.23953 12.4444 3.01344 12.4444 2.77769V0.999912C12.4444 0.764164 12.3508 0.538072 12.1841 0.371373C12.0174 0.204674 11.7913 0.111023 11.5556 0.111023H0.888889C0.653141 0.111023 0.427048 0.204674 0.260349 0.371373C0.0936505 0.538072 0 0.764164 0 0.999912V2.77769C0 3.01344 0.0936505 3.23953 0.260349 3.40623C0.427048 3.57293 0.653141 3.66658 0.888889 3.66658C1.12464 3.66658 1.35073 3.57293 1.51743 3.40623C1.68413 3.23953 1.77778 3.01344 1.77778 2.77769V1.8888H5.33333V8.99991H4.44444C4.2087 8.99991 3.9826 9.09356 3.81591 9.26026C3.64921 9.42696 3.55556 9.65305 3.55556 9.8888C3.55556 10.1245 3.64921 10.3506 3.81591 10.5173C3.9826 10.684 4.2087 10.7777 4.44444 10.7777H8Z" fill="#53AC5F"/>
</svg>
