<svg width="24" height="25" viewBox="0 0 24 25" fill="none" xmlns="http://www.w3.org/2000/svg">
<path opacity="0.5" d="M2.11317 2.9474L2.11378 2.94679C2.59953 2.46062 3.27023 2.16137 4.4664 2.00049C5.69132 1.83574 7.30895 1.83362 9.59978 1.83362H11.9997C14.2906 1.83362 15.9082 1.83574 17.1331 2.00049C18.3293 2.16137 19 2.46062 19.4857 2.94679L19.4863 2.94739C19.9725 3.43315 20.2718 4.10385 20.4326 5.30002C20.5974 6.52494 20.5995 8.14257 20.5995 10.4334V15.2333C20.5995 17.5241 20.5974 19.1418 20.4326 20.3667C20.2718 21.5628 19.9725 22.2335 19.4863 22.7193L19.4857 22.7199C19 23.2061 18.3293 23.5053 17.1331 23.6662C15.9082 23.8309 14.2906 23.8331 11.9997 23.8331H9.59978C7.30895 23.8331 5.69132 23.8309 4.4664 23.6662C3.27023 23.5053 2.59953 23.2061 2.11378 22.7199L2.11317 22.7193C1.627 22.2335 1.32775 21.5628 1.16687 20.3667C1.00213 19.1418 1 17.5241 1 15.2333V10.4334C1 8.14257 1.00213 6.52494 1.16687 5.30002C1.32775 4.10385 1.627 3.43315 2.11317 2.9474Z" fill="#53AC5F" fill-opacity="0.46" stroke="#53AC5F" stroke-width="2"/>
<path d="M16.2225 18.2344C16.4325 18.0712 16.6233 17.8804 17.0037 17.5L21.752 12.7505C21.8672 12.6365 21.8144 12.4385 21.662 12.3845C20.919 12.1256 20.2444 11.7013 19.6892 11.1438C19.1316 10.5886 18.7074 9.91403 18.4484 9.17102C18.3944 9.01862 18.1964 8.96582 18.0824 9.08102L13.3318 13.8293C12.9514 14.2097 12.7606 14.4005 12.5974 14.6105C12.4042 14.8589 12.2374 15.1265 12.103 15.4097C11.989 15.6497 11.9038 15.9065 11.7334 16.4177L11.5126 17.0776L11.1622 18.1276L10.8346 19.1116C10.7938 19.2349 10.788 19.3672 10.818 19.4936C10.8479 19.62 10.9125 19.7356 11.0043 19.8275C11.0962 19.9193 11.2118 19.9838 11.3382 20.0138C11.4646 20.0438 11.5969 20.038 11.7202 19.9972L12.7042 19.6696L13.7541 19.3192L14.4141 19.0984C14.9253 18.928 15.1821 18.844 15.4221 18.7288C15.7053 18.5932 15.9753 18.4288 16.2225 18.2344ZM23.2399 11.2638C23.7267 10.7768 24.0001 10.1165 24 9.42799C23.9999 8.73948 23.7263 8.07922 23.2393 7.59245C22.7524 7.10568 22.0921 6.83228 21.4035 6.8324C20.715 6.83251 20.0548 7.10613 19.568 7.59305L19.4168 7.74665C19.3442 7.81827 19.29 7.9065 19.2591 8.00371C19.2282 8.10092 19.2213 8.2042 19.2392 8.30464C19.2632 8.43303 19.3052 8.62263 19.3832 8.84702C19.5392 9.29701 19.8344 9.8874 20.39 10.443C20.8387 10.8953 21.3845 11.2396 21.986 11.4498C22.2116 11.5278 22.4 11.5698 22.5283 11.5938C22.6288 11.6115 22.732 11.6047 22.8292 11.5737C22.9264 11.5428 23.0147 11.4887 23.0863 11.4162L23.2399 11.2638Z" fill="#53AC5F"/>
<path fill-rule="evenodd" clip-rule="evenodd" d="M5.09985 9.23348C5.09985 8.99479 5.19467 8.76587 5.36345 8.59709C5.53223 8.42832 5.76114 8.3335 5.99983 8.3335H13.7997C14.0383 8.3335 14.2673 8.42832 14.436 8.59709C14.6048 8.76587 14.6996 8.99479 14.6996 9.23348C14.6996 9.47217 14.6048 9.70108 14.436 9.86986C14.2673 10.0386 14.0383 10.1335 13.7997 10.1335H5.99983C5.76114 10.1335 5.53223 10.0386 5.36345 9.86986C5.19467 9.70108 5.09985 9.47217 5.09985 9.23348ZM5.09985 14.0334C5.09985 13.7947 5.19467 13.5658 5.36345 13.397C5.53223 13.2282 5.76114 13.1334 5.99983 13.1334H9.59975C9.83844 13.1334 10.0674 13.2282 10.2361 13.397C10.4049 13.5658 10.4997 13.7947 10.4997 14.0334C10.4997 14.2721 10.4049 14.501 10.2361 14.6697C10.0674 14.8385 9.83844 14.9333 9.59975 14.9333H5.99983C5.76114 14.9333 5.53223 14.8385 5.36345 14.6697C5.19467 14.501 5.09985 14.2721 5.09985 14.0334ZM5.09985 18.8333C5.09985 18.5946 5.19467 18.3657 5.36345 18.1969C5.53223 18.0281 5.76114 17.9333 5.99983 17.9333H7.79979C8.03848 17.9333 8.26739 18.0281 8.43617 18.1969C8.60495 18.3657 8.69977 18.5946 8.69977 18.8333C8.69977 19.0719 8.60495 19.3009 8.43617 19.4696C8.26739 19.6384 8.03848 19.7332 7.79979 19.7332H5.99983C5.76114 19.7332 5.53223 19.6384 5.36345 19.4696C5.19467 19.3009 5.09985 19.0719 5.09985 18.8333Z" fill="#53AC5F"/>
</svg>
