<svg width="24" height="26" viewBox="0 0 24 26" fill="none" xmlns="http://www.w3.org/2000/svg">
<path opacity="0.3" d="M18.3159 23.1052C20.0599 23.1052 21.4737 21.6914 21.4737 19.9473C21.4737 18.2033 20.0599 16.7894 18.3159 16.7894C16.5718 16.7894 15.158 18.2033 15.158 19.9473C15.158 21.6914 16.5718 23.1052 18.3159 23.1052Z" fill="#53AC5F" fill-opacity="0.46"/>
<path opacity="0.3" d="M2.52637 17.421H7.579V22.4736H2.52637V17.421ZM11.3685 5.21887L8.93058 9.21045H13.8064L11.3685 5.21887Z" fill="#53AC5F" fill-opacity="0.46"/>
<path d="M11.3684 0.368408L4.42105 11.7368H18.3158L11.3684 0.368408ZM11.3684 5.21893L13.8063 9.21051H8.9179L11.3684 5.21893ZM18.3158 14.2631C15.1705 14.2631 12.6316 16.8021 12.6316 19.9474C12.6316 23.0926 15.1705 25.6316 18.3158 25.6316C21.4611 25.6316 24 23.0926 24 19.9474C24 16.8021 21.4611 14.2631 18.3158 14.2631ZM18.3158 23.1052C17.4783 23.1052 16.675 22.7725 16.0828 22.1803C15.4906 21.5881 15.1579 20.7849 15.1579 19.9474C15.1579 19.1098 15.4906 18.3066 16.0828 17.7144C16.675 17.1222 17.4783 16.7895 18.3158 16.7895C19.1533 16.7895 19.9565 17.1222 20.5488 17.7144C21.141 18.3066 21.4737 19.1098 21.4737 19.9474C21.4737 20.7849 21.141 21.5881 20.5488 22.1803C19.9565 22.7725 19.1533 23.1052 18.3158 23.1052ZM10.1053 14.8947H0V25H10.1053V14.8947ZM7.57895 22.4737H2.52632V17.421H7.57895V22.4737Z" fill="#53AC5F"/>
</svg>
