<svg width="40" height="40" viewBox="0 0 40 40" fill="none" xmlns="http://www.w3.org/2000/svg">
<path opacity="0.5" d="M10.1132 9.9474L10.1138 9.94679C10.5995 9.46062 11.2702 9.16137 12.4664 9.00049C13.6913 8.83574 15.309 8.83362 17.5998 8.83362H19.9997C22.2906 8.83362 23.9082 8.83574 25.1331 9.00049C26.3293 9.16137 27 9.46062 27.4857 9.94679L27.4863 9.94739C27.9725 10.4332 28.2718 11.1038 28.4326 12.3C28.5974 13.5249 28.5995 15.1426 28.5995 17.4334V22.2333C28.5995 24.5241 28.5974 26.1418 28.4326 27.3667C28.2718 28.5628 27.9725 29.2335 27.4863 29.7193L27.4857 29.7199C27 30.2061 26.3293 30.5053 25.1331 30.6662C23.9082 30.8309 22.2906 30.8331 19.9997 30.8331H17.5998C15.309 30.8331 13.6913 30.8309 12.4664 30.6662C11.2702 30.5053 10.5995 30.2061 10.1138 29.7199L10.1132 29.7193C9.627 29.2335 9.32775 28.5628 9.16687 27.3667C9.00213 26.1418 9 24.5241 9 22.2333V17.4334C9 15.1426 9.00213 13.5249 9.16687 12.3C9.32775 11.1038 9.627 10.4331 10.1132 9.9474Z" fill="#53AC5F" fill-opacity="0.46" stroke="#53AC5F" stroke-width="2"/>
<path d="M24.2225 25.2344C24.4325 25.0712 24.6233 24.8804 25.0037 24.5L29.752 19.7505C29.8672 19.6365 29.8144 19.4385 29.662 19.3845C28.919 19.1256 28.2444 18.7013 27.6892 18.1438C27.1316 17.5886 26.7074 16.914 26.4484 16.171C26.3944 16.0186 26.1964 15.9658 26.0824 16.081L21.3318 20.8293C20.9514 21.2097 20.7606 21.4005 20.5974 21.6105C20.4042 21.8589 20.2374 22.1265 20.103 22.4097C19.989 22.6497 19.9038 22.9065 19.7334 23.4177L19.5126 24.0776L19.1622 25.1276L18.8346 26.1116C18.7938 26.2349 18.788 26.3672 18.818 26.4936C18.8479 26.62 18.9125 26.7356 19.0043 26.8275C19.0962 26.9193 19.2118 26.9838 19.3382 27.0138C19.4646 27.0438 19.5969 27.038 19.7202 26.9972L20.7042 26.6696L21.7541 26.3192L22.4141 26.0984C22.9253 25.928 23.1821 25.844 23.4221 25.7288C23.7053 25.5932 23.9753 25.4288 24.2225 25.2344ZM31.2399 18.2638C31.7267 17.7768 32.0001 17.1165 32 16.428C31.9999 15.7395 31.7263 15.0792 31.2393 14.5925C30.7524 14.1057 30.0921 13.8323 29.4035 13.8324C28.715 13.8325 28.0548 14.1061 27.568 14.5931L27.4168 14.7466C27.3442 14.8183 27.29 14.9065 27.2591 15.0037C27.2282 15.1009 27.2213 15.2042 27.2392 15.3046C27.2632 15.433 27.3052 15.6226 27.3832 15.847C27.5392 16.297 27.8344 16.8874 28.39 17.443C28.8387 17.8953 29.3845 18.2396 29.986 18.4498C30.2116 18.5278 30.4 18.5698 30.5283 18.5938C30.6288 18.6115 30.732 18.6047 30.8292 18.5737C30.9264 18.5428 31.0147 18.4887 31.0863 18.4162L31.2399 18.2638Z" fill="#53AC5F"/>
<path fill-rule="evenodd" clip-rule="evenodd" d="M13.0999 16.2335C13.0999 15.9948 13.1947 15.7659 13.3635 15.5971C13.5322 15.4283 13.7611 15.3335 13.9998 15.3335H21.7997C22.0383 15.3335 22.2673 15.4283 22.436 15.5971C22.6048 15.7659 22.6996 15.9948 22.6996 16.2335C22.6996 16.4722 22.6048 16.7011 22.436 16.8699C22.2673 17.0386 22.0383 17.1335 21.7997 17.1335H13.9998C13.7611 17.1335 13.5322 17.0386 13.3635 16.8699C13.1947 16.7011 13.0999 16.4722 13.0999 16.2335ZM13.0999 21.0334C13.0999 20.7947 13.1947 20.5658 13.3635 20.397C13.5322 20.2282 13.7611 20.1334 13.9998 20.1334H17.5998C17.8384 20.1334 18.0674 20.2282 18.2361 20.397C18.4049 20.5658 18.4997 20.7947 18.4997 21.0334C18.4997 21.2721 18.4049 21.501 18.2361 21.6697C18.0674 21.8385 17.8384 21.9333 17.5998 21.9333H13.9998C13.7611 21.9333 13.5322 21.8385 13.3635 21.6697C13.1947 21.501 13.0999 21.2721 13.0999 21.0334ZM13.0999 25.8333C13.0999 25.5946 13.1947 25.3657 13.3635 25.1969C13.5322 25.0281 13.7611 24.9333 13.9998 24.9333H15.7998C16.0385 24.9333 16.2674 25.0281 16.4362 25.1969C16.605 25.3657 16.6998 25.5946 16.6998 25.8333C16.6998 26.0719 16.605 26.3009 16.4362 26.4696C16.2674 26.6384 16.0385 26.7332 15.7998 26.7332H13.9998C13.7611 26.7332 13.5322 26.6384 13.3635 26.4696C13.1947 26.3009 13.0999 26.0719 13.0999 25.8333Z" fill="#53AC5F"/>
</svg>
